<?xml version="1.0" encoding="UTF-8"?>
<svg xmlns="http://www.w3.org/2000/svg" viewBox="0 0 32 32" width="32" height="32">
  <defs>
    <linearGradient id="g1" x1="0%" y1="0%" x2="60%" y2="100%">
      <stop offset="0%" stop-color="#22d3ee"/>
      <stop offset="100%" stop-color="#0891b2"/>
    </linearGradient>
    <linearGradient id="g2" x1="0%" y1="0%" x2="60%" y2="100%">
      <stop offset="0%" stop-color="#0ea5e9"/>
      <stop offset="100%" stop-color="#0e7490"/>
    </linearGradient>
  </defs>

  <!-- Left drop (filled) -->
  <path d="M9.33 21.73c2.93 0 5.33-2.44 5.33-5.4 0-1.55-.76-3.01-2.28-4.25C10.86 11 9.72 9.67 9.33 7.07c-.39 1.93-1.52 3.78-3.05 5.01C4.76 13.32 4 14.79 4 16.33c0 2.96 2.4 5.4 5.33 5.4z" 
        fill="url(#g1)" stroke="none"/>
  <!-- Highlight on left drop -->
  <ellipse cx="7.5" cy="13" rx="1.2" ry="2.2" fill="white" opacity="0.4" transform="rotate(-15 7.5 13)"/>

  <!-- Right drop (stroked) -->
  <path d="M16.75 8.8A14.63 14.63 0 0 0 18.67 4.03c.67 3.33 2.67 6.53 5.33 8.67s4 4.67 4 7.33a9.31 9.31 0 0 1-15.88 6.63"
        fill="none" stroke="url(#g2)" stroke-width="2" stroke-linecap="round" stroke-linejoin="round"/>

  <!-- Small ripple dot -->
  <circle cx="9.33" cy="23.5" r="1.2" fill="#0891b2" opacity="0.4"/>
</svg>